<mxfile host="app.diagrams.net" modified="2024-07-03T12:30:39.630Z" agent="Mozilla/5.0 (Macintosh; Intel Mac OS X 10_15_7) AppleWebKit/605.1.15 (KHTML, like Gecko) Version/17.5 Safari/605.1.15" etag="-LW74pWRSCb7BKq8zz42" version="24.6.4" type="device">
  <diagram name="Pagina-1" id="xL3e-xxGRwBg3kEbG2a0">
    <mxGraphModel dx="2293" dy="2125" grid="1" gridSize="10" guides="1" tooltips="1" connect="1" arrows="1" fold="1" page="1" pageScale="1" pageWidth="827" pageHeight="1169" math="0" shadow="0">
      <root>
        <mxCell id="0" />
        <mxCell id="1" parent="0" />
        <mxCell id="KgdIim3yzK7cX7A-Uen1-1" value="RISTORANTE" style="rounded=0;whiteSpace=wrap;html=1;" vertex="1" parent="1">
          <mxGeometry x="-160" y="60" width="120" height="60" as="geometry" />
        </mxCell>
        <mxCell id="KgdIim3yzK7cX7A-Uen1-2" value="UTENTE" style="rounded=0;whiteSpace=wrap;html=1;" vertex="1" parent="1">
          <mxGeometry x="610" y="60" width="120" height="60" as="geometry" />
        </mxCell>
        <mxCell id="KgdIim3yzK7cX7A-Uen1-3" value="ORDINE" style="rounded=0;whiteSpace=wrap;html=1;" vertex="1" parent="1">
          <mxGeometry x="219.75" y="240" width="120" height="60" as="geometry" />
        </mxCell>
        <mxCell id="KgdIim3yzK7cX7A-Uen1-4" value="PIATTO" style="rounded=0;whiteSpace=wrap;html=1;" vertex="1" parent="1">
          <mxGeometry x="-160" y="368.5" width="120" height="60" as="geometry" />
        </mxCell>
        <mxCell id="KgdIim3yzK7cX7A-Uen1-5" value="RIDER" style="rounded=0;whiteSpace=wrap;html=1;" vertex="1" parent="1">
          <mxGeometry x="-140" y="-140" width="120" height="60" as="geometry" />
        </mxCell>
        <mxCell id="KgdIim3yzK7cX7A-Uen1-9" value="" style="endArrow=none;html=1;rounded=0;entryX=0;entryY=0;entryDx=0;entryDy=0;endFill=0;startArrow=oval;startFill=0;" edge="1" parent="1" target="KgdIim3yzK7cX7A-Uen1-2">
          <mxGeometry width="50" height="50" relative="1" as="geometry">
            <mxPoint x="610" y="40" as="sourcePoint" />
            <mxPoint x="640" y="40" as="targetPoint" />
          </mxGeometry>
        </mxCell>
        <mxCell id="KgdIim3yzK7cX7A-Uen1-10" value="nome" style="text;html=1;align=center;verticalAlign=middle;whiteSpace=wrap;rounded=0;" vertex="1" parent="1">
          <mxGeometry x="570" y="20" width="50" height="10" as="geometry" />
        </mxCell>
        <mxCell id="KgdIim3yzK7cX7A-Uen1-11" value="" style="endArrow=none;html=1;rounded=0;entryX=0;entryY=0;entryDx=0;entryDy=0;endFill=0;startArrow=oval;startFill=1;" edge="1" parent="1">
          <mxGeometry width="50" height="50" relative="1" as="geometry">
            <mxPoint x="630" y="40" as="sourcePoint" />
            <mxPoint x="630" y="60" as="targetPoint" />
          </mxGeometry>
        </mxCell>
        <mxCell id="KgdIim3yzK7cX7A-Uen1-12" value="email" style="text;html=1;align=center;verticalAlign=middle;whiteSpace=wrap;rounded=0;" vertex="1" parent="1">
          <mxGeometry x="610" y="20" width="40" height="10" as="geometry" />
        </mxCell>
        <mxCell id="KgdIim3yzK7cX7A-Uen1-13" value="" style="endArrow=none;html=1;rounded=0;entryX=0;entryY=0;entryDx=0;entryDy=0;endFill=0;startArrow=oval;startFill=0;" edge="1" parent="1">
          <mxGeometry width="50" height="50" relative="1" as="geometry">
            <mxPoint x="650" y="20" as="sourcePoint" />
            <mxPoint x="650" y="60" as="targetPoint" />
          </mxGeometry>
        </mxCell>
        <mxCell id="KgdIim3yzK7cX7A-Uen1-14" value="password" style="text;html=1;align=center;verticalAlign=middle;whiteSpace=wrap;rounded=0;" vertex="1" parent="1">
          <mxGeometry x="620" width="50" height="10" as="geometry" />
        </mxCell>
        <mxCell id="KgdIim3yzK7cX7A-Uen1-15" value="" style="endArrow=none;html=1;rounded=0;entryX=0;entryY=0;entryDx=0;entryDy=0;endFill=0;startArrow=oval;startFill=0;" edge="1" parent="1">
          <mxGeometry width="50" height="50" relative="1" as="geometry">
            <mxPoint x="670" y="40" as="sourcePoint" />
            <mxPoint x="670" y="60" as="targetPoint" />
          </mxGeometry>
        </mxCell>
        <mxCell id="KgdIim3yzK7cX7A-Uen1-16" value="telefono" style="text;html=1;align=center;verticalAlign=middle;whiteSpace=wrap;rounded=0;" vertex="1" parent="1">
          <mxGeometry x="649" y="20" width="55" height="10" as="geometry" />
        </mxCell>
        <mxCell id="KgdIim3yzK7cX7A-Uen1-19" value="" style="endArrow=none;html=1;rounded=0;entryX=1;entryY=0;entryDx=0;entryDy=0;endFill=0;startArrow=oval;startFill=0;" edge="1" parent="1" target="KgdIim3yzK7cX7A-Uen1-2">
          <mxGeometry width="50" height="50" relative="1" as="geometry">
            <mxPoint x="740" y="50" as="sourcePoint" />
            <mxPoint x="670" y="120" as="targetPoint" />
          </mxGeometry>
        </mxCell>
        <mxCell id="KgdIim3yzK7cX7A-Uen1-20" value="borsellino" style="text;html=1;align=center;verticalAlign=middle;whiteSpace=wrap;rounded=0;" vertex="1" parent="1">
          <mxGeometry x="740" y="40" width="70" height="10" as="geometry" />
        </mxCell>
        <mxCell id="KgdIim3yzK7cX7A-Uen1-21" value="" style="endArrow=none;html=1;rounded=0;entryX=1.004;entryY=0.16;entryDx=0;entryDy=0;endFill=0;startArrow=oval;startFill=0;entryPerimeter=0;" edge="1" parent="1" target="KgdIim3yzK7cX7A-Uen1-2">
          <mxGeometry width="50" height="50" relative="1" as="geometry">
            <mxPoint x="750" y="70" as="sourcePoint" />
            <mxPoint x="820" y="130" as="targetPoint" />
          </mxGeometry>
        </mxCell>
        <mxCell id="KgdIim3yzK7cX7A-Uen1-22" value="premium" style="text;html=1;align=center;verticalAlign=middle;whiteSpace=wrap;rounded=0;" vertex="1" parent="1">
          <mxGeometry x="750" y="60" width="60" height="10" as="geometry" />
        </mxCell>
        <mxCell id="KgdIim3yzK7cX7A-Uen1-45" value="" style="endArrow=none;html=1;rounded=0;entryX=0;entryY=0;entryDx=0;entryDy=0;endFill=0;startArrow=oval;startFill=1;" edge="1" parent="1">
          <mxGeometry width="50" height="50" relative="1" as="geometry">
            <mxPoint x="-40" y="40" as="sourcePoint" />
            <mxPoint x="-40" y="60" as="targetPoint" />
          </mxGeometry>
        </mxCell>
        <mxCell id="KgdIim3yzK7cX7A-Uen1-46" value="nome" style="text;html=1;align=center;verticalAlign=middle;whiteSpace=wrap;rounded=0;" vertex="1" parent="1">
          <mxGeometry x="-40" y="30" width="40" height="10" as="geometry" />
        </mxCell>
        <mxCell id="KgdIim3yzK7cX7A-Uen1-47" value="" style="endArrow=none;html=1;rounded=0;entryX=0;entryY=0;entryDx=0;entryDy=0;endFill=0;startArrow=oval;startFill=0;" edge="1" parent="1">
          <mxGeometry width="50" height="50" relative="1" as="geometry">
            <mxPoint x="-50" y="20" as="sourcePoint" />
            <mxPoint x="-50" y="60" as="targetPoint" />
          </mxGeometry>
        </mxCell>
        <mxCell id="KgdIim3yzK7cX7A-Uen1-48" value="descrizione" style="text;html=1;align=center;verticalAlign=middle;whiteSpace=wrap;rounded=0;" vertex="1" parent="1">
          <mxGeometry x="-40" y="10" width="50" height="10" as="geometry" />
        </mxCell>
        <mxCell id="KgdIim3yzK7cX7A-Uen1-49" value="" style="endArrow=none;html=1;rounded=0;entryX=0;entryY=0;entryDx=0;entryDy=0;endFill=0;startArrow=oval;startFill=0;" edge="1" parent="1">
          <mxGeometry width="50" height="50" relative="1" as="geometry">
            <mxPoint x="-110" y="20" as="sourcePoint" />
            <mxPoint x="-110" y="60" as="targetPoint" />
          </mxGeometry>
        </mxCell>
        <mxCell id="KgdIim3yzK7cX7A-Uen1-50" value="costo_spedizione" style="text;html=1;align=center;verticalAlign=middle;whiteSpace=wrap;rounded=0;" vertex="1" parent="1">
          <mxGeometry x="-120" width="50" height="10" as="geometry" />
        </mxCell>
        <mxCell id="KgdIim3yzK7cX7A-Uen1-51" value="" style="endArrow=none;html=1;rounded=0;entryX=0;entryY=0;entryDx=0;entryDy=0;endFill=0;startArrow=oval;startFill=0;" edge="1" parent="1">
          <mxGeometry width="50" height="50" relative="1" as="geometry">
            <mxPoint x="-125" y="40" as="sourcePoint" />
            <mxPoint x="-125" y="60" as="targetPoint" />
          </mxGeometry>
        </mxCell>
        <mxCell id="KgdIim3yzK7cX7A-Uen1-52" value="img_profilo" style="text;html=1;align=center;verticalAlign=middle;whiteSpace=wrap;rounded=0;" vertex="1" parent="1">
          <mxGeometry x="-170" y="20" width="60" height="10" as="geometry" />
        </mxCell>
        <mxCell id="KgdIim3yzK7cX7A-Uen1-53" value="" style="endArrow=none;html=1;rounded=0;entryX=0;entryY=0;entryDx=0;entryDy=0;endFill=0;startArrow=oval;startFill=0;" edge="1" parent="1">
          <mxGeometry width="50" height="50" relative="1" as="geometry">
            <mxPoint x="-70.69" y="50" as="sourcePoint" />
            <mxPoint x="-70.69" y="60" as="targetPoint" />
          </mxGeometry>
        </mxCell>
        <mxCell id="KgdIim3yzK7cX7A-Uen1-54" value="stelle" style="text;html=1;align=center;verticalAlign=middle;whiteSpace=wrap;rounded=0;" vertex="1" parent="1">
          <mxGeometry x="-100" y="30" width="30" height="20" as="geometry" />
        </mxCell>
        <mxCell id="KgdIim3yzK7cX7A-Uen1-57" value="" style="endArrow=none;html=1;rounded=0;endFill=0;startArrow=oval;startFill=0;entryX=0;entryY=0.25;entryDx=0;entryDy=0;" edge="1" parent="1" target="KgdIim3yzK7cX7A-Uen1-1">
          <mxGeometry width="50" height="50" relative="1" as="geometry">
            <mxPoint x="-180" y="70" as="sourcePoint" />
            <mxPoint x="-195" y="109" as="targetPoint" />
          </mxGeometry>
        </mxCell>
        <mxCell id="KgdIim3yzK7cX7A-Uen1-58" value="&lt;font style=&quot;font-size: 12px;&quot;&gt;data_TopPartner&lt;/font&gt;" style="text;html=1;align=center;verticalAlign=middle;whiteSpace=wrap;rounded=0;" vertex="1" parent="1">
          <mxGeometry x="-280" y="62.5" width="95" height="10" as="geometry" />
        </mxCell>
        <mxCell id="KgdIim3yzK7cX7A-Uen1-59" value="TopPartner" style="text;html=1;align=center;verticalAlign=middle;whiteSpace=wrap;rounded=0;" vertex="1" parent="1">
          <mxGeometry x="-240" y="50" width="50" height="10" as="geometry" />
        </mxCell>
        <mxCell id="KgdIim3yzK7cX7A-Uen1-71" value="" style="endArrow=none;html=1;rounded=0;endFill=0;startArrow=oval;startFill=0;entryX=0.005;entryY=0.09;entryDx=0;entryDy=0;entryPerimeter=0;" edge="1" parent="1" target="KgdIim3yzK7cX7A-Uen1-1">
          <mxGeometry width="50" height="50" relative="1" as="geometry">
            <mxPoint x="-180" y="60" as="sourcePoint" />
            <mxPoint x="-198.61777515716653" y="64.47858777574879" as="targetPoint" />
          </mxGeometry>
        </mxCell>
        <mxCell id="KgdIim3yzK7cX7A-Uen1-72" value="" style="endArrow=none;html=1;rounded=0;entryX=0.083;entryY=-0.008;entryDx=0;entryDy=0;startArrow=oval;startFill=1;entryPerimeter=0;" edge="1" parent="1" target="KgdIim3yzK7cX7A-Uen1-4">
          <mxGeometry width="50" height="50" relative="1" as="geometry">
            <mxPoint x="-150" y="350" as="sourcePoint" />
            <mxPoint x="-190" y="378.5" as="targetPoint" />
          </mxGeometry>
        </mxCell>
        <mxCell id="KgdIim3yzK7cX7A-Uen1-73" value="titolo" style="text;html=1;align=center;verticalAlign=middle;whiteSpace=wrap;rounded=0;" vertex="1" parent="1">
          <mxGeometry x="-160" y="331.5" width="30" height="10" as="geometry" />
        </mxCell>
        <mxCell id="KgdIim3yzK7cX7A-Uen1-74" value="" style="endArrow=none;html=1;rounded=0;entryX=0.25;entryY=0;entryDx=0;entryDy=0;startArrow=oval;startFill=0;" edge="1" parent="1" target="KgdIim3yzK7cX7A-Uen1-4">
          <mxGeometry width="50" height="50" relative="1" as="geometry">
            <mxPoint x="-120" y="350" as="sourcePoint" />
            <mxPoint x="-120" y="368.5" as="targetPoint" />
          </mxGeometry>
        </mxCell>
        <mxCell id="KgdIim3yzK7cX7A-Uen1-75" value="immagine" style="text;html=1;align=center;verticalAlign=middle;whiteSpace=wrap;rounded=0;" vertex="1" parent="1">
          <mxGeometry x="-130" y="336.5" width="60" height="10" as="geometry" />
        </mxCell>
        <mxCell id="KgdIim3yzK7cX7A-Uen1-80" value="" style="endArrow=none;html=1;rounded=0;entryX=0;entryY=0;entryDx=0;entryDy=0;startArrow=oval;startFill=0;" edge="1" parent="1">
          <mxGeometry width="50" height="50" relative="1" as="geometry">
            <mxPoint x="-110" y="360" as="sourcePoint" />
            <mxPoint x="-110" y="368.5" as="targetPoint" />
          </mxGeometry>
        </mxCell>
        <mxCell id="KgdIim3yzK7cX7A-Uen1-81" value="prezzo" style="text;html=1;align=center;verticalAlign=middle;whiteSpace=wrap;rounded=0;" vertex="1" parent="1">
          <mxGeometry x="-105" y="351" width="40" height="10" as="geometry" />
        </mxCell>
        <mxCell id="KgdIim3yzK7cX7A-Uen1-82" value="" style="endArrow=none;html=1;rounded=0;startArrow=oval;startFill=0;entryX=0.922;entryY=0.008;entryDx=0;entryDy=0;entryPerimeter=0;" edge="1" parent="1" target="KgdIim3yzK7cX7A-Uen1-4">
          <mxGeometry width="50" height="50" relative="1" as="geometry">
            <mxPoint x="-49" y="360" as="sourcePoint" />
            <mxPoint x="-160" y="435" as="targetPoint" />
          </mxGeometry>
        </mxCell>
        <mxCell id="KgdIim3yzK7cX7A-Uen1-83" value="sconto" style="text;html=1;align=center;verticalAlign=middle;whiteSpace=wrap;rounded=0;" vertex="1" parent="1">
          <mxGeometry x="-65" y="341" width="50" height="10" as="geometry" />
        </mxCell>
        <mxCell id="KgdIim3yzK7cX7A-Uen1-86" value="" style="endArrow=none;html=1;rounded=0;entryX=0;entryY=0;entryDx=0;entryDy=0;startArrow=oval;startFill=1;" edge="1" parent="1">
          <mxGeometry width="50" height="50" relative="1" as="geometry">
            <mxPoint x="-150" y="-150" as="sourcePoint" />
            <mxPoint x="-140" y="-140" as="targetPoint" />
          </mxGeometry>
        </mxCell>
        <mxCell id="KgdIim3yzK7cX7A-Uen1-87" value="codice" style="text;html=1;align=center;verticalAlign=middle;whiteSpace=wrap;rounded=0;" vertex="1" parent="1">
          <mxGeometry x="-200" y="-160" width="50" height="10" as="geometry" />
        </mxCell>
        <mxCell id="KgdIim3yzK7cX7A-Uen1-88" value="" style="endArrow=none;html=1;rounded=0;entryX=0;entryY=0;entryDx=0;entryDy=0;startArrow=oval;startFill=0;" edge="1" parent="1">
          <mxGeometry width="50" height="50" relative="1" as="geometry">
            <mxPoint x="-150" y="-140" as="sourcePoint" />
            <mxPoint x="-140" y="-130" as="targetPoint" />
          </mxGeometry>
        </mxCell>
        <mxCell id="KgdIim3yzK7cX7A-Uen1-89" value="posizione" style="text;html=1;align=center;verticalAlign=middle;whiteSpace=wrap;rounded=0;" vertex="1" parent="1">
          <mxGeometry x="-210" y="-150" width="60" height="10" as="geometry" />
        </mxCell>
        <mxCell id="KgdIim3yzK7cX7A-Uen1-104" value="km_batteria" style="text;html=1;align=center;verticalAlign=middle;whiteSpace=wrap;rounded=0;" vertex="1" parent="1">
          <mxGeometry x="-110" y="-190" width="70" height="20" as="geometry" />
        </mxCell>
        <mxCell id="KgdIim3yzK7cX7A-Uen1-115" value="RECENSIONE_&lt;div&gt;RISTORANTE&lt;/div&gt;" style="rounded=0;whiteSpace=wrap;html=1;" vertex="1" parent="1">
          <mxGeometry x="415" y="401" width="110" height="40" as="geometry" />
        </mxCell>
        <mxCell id="KgdIim3yzK7cX7A-Uen1-116" value="RECENSIONE_&lt;div&gt;RIDER&lt;/div&gt;" style="rounded=0;whiteSpace=wrap;html=1;" vertex="1" parent="1">
          <mxGeometry x="414.25" y="486.5" width="110" height="40" as="geometry" />
        </mxCell>
        <mxCell id="KgdIim3yzK7cX7A-Uen1-127" value="" style="endArrow=none;html=1;rounded=0;entryX=0.918;entryY=0.018;entryDx=0;entryDy=0;endFill=0;startArrow=oval;startFill=0;entryPerimeter=0;" edge="1" parent="1" target="KgdIim3yzK7cX7A-Uen1-3">
          <mxGeometry width="50" height="50" relative="1" as="geometry">
            <mxPoint x="350" y="220" as="sourcePoint" />
            <mxPoint x="289.1400000000002" y="244.50000000000014" as="targetPoint" />
          </mxGeometry>
        </mxCell>
        <mxCell id="KgdIim3yzK7cX7A-Uen1-128" value="data_creazione" style="text;html=1;align=center;verticalAlign=middle;whiteSpace=wrap;rounded=0;" vertex="1" parent="1">
          <mxGeometry x="359.25" y="203.9" width="71" height="15" as="geometry" />
        </mxCell>
        <mxCell id="KgdIim3yzK7cX7A-Uen1-129" value="ora_ritiro" style="text;html=1;align=center;verticalAlign=middle;whiteSpace=wrap;rounded=0;" vertex="1" parent="1">
          <mxGeometry x="359.25" y="316.5" width="60" height="15" as="geometry" />
        </mxCell>
        <mxCell id="KgdIim3yzK7cX7A-Uen1-130" value="" style="endArrow=none;html=1;rounded=0;endFill=0;startArrow=oval;startFill=0;" edge="1" parent="1" target="KgdIim3yzK7cX7A-Uen1-3">
          <mxGeometry width="50" height="50" relative="1" as="geometry">
            <mxPoint x="359.25" y="331.5" as="sourcePoint" />
            <mxPoint x="252.01000000000022" y="255.10000000000014" as="targetPoint" />
          </mxGeometry>
        </mxCell>
        <mxCell id="KgdIim3yzK7cX7A-Uen1-131" value="ora_consegna" style="text;html=1;align=center;verticalAlign=middle;whiteSpace=wrap;rounded=0;" vertex="1" parent="1">
          <mxGeometry x="359.25" y="304" width="80" height="15" as="geometry" />
        </mxCell>
        <mxCell id="KgdIim3yzK7cX7A-Uen1-132" value="" style="endArrow=none;html=1;rounded=0;entryX=1;entryY=1;entryDx=0;entryDy=0;endFill=0;startArrow=oval;startFill=0;exitX=0;exitY=1;exitDx=0;exitDy=0;" edge="1" parent="1" source="KgdIim3yzK7cX7A-Uen1-131" target="KgdIim3yzK7cX7A-Uen1-3">
          <mxGeometry width="50" height="50" relative="1" as="geometry">
            <mxPoint x="312.25" y="234.5" as="sourcePoint" />
            <mxPoint x="324.25" y="245.5" as="targetPoint" />
          </mxGeometry>
        </mxCell>
        <mxCell id="KgdIim3yzK7cX7A-Uen1-133" value="" style="endArrow=none;html=1;rounded=0;entryX=0;entryY=0;entryDx=0;entryDy=0;startArrow=oval;startFill=0;" edge="1" parent="1">
          <mxGeometry width="50" height="50" relative="1" as="geometry">
            <mxPoint x="-150" y="-130" as="sourcePoint" />
            <mxPoint x="-140" y="-120" as="targetPoint" />
          </mxGeometry>
        </mxCell>
        <mxCell id="KgdIim3yzK7cX7A-Uen1-134" value="numero_consegne" style="text;html=1;align=center;verticalAlign=middle;whiteSpace=wrap;rounded=0;" vertex="1" parent="1">
          <mxGeometry x="-260" y="-140" width="110" height="10" as="geometry" />
        </mxCell>
        <mxCell id="KgdIim3yzK7cX7A-Uen1-164" value="0,1" style="text;html=1;align=center;verticalAlign=middle;whiteSpace=wrap;rounded=0;" vertex="1" parent="1">
          <mxGeometry x="515.75" y="468.5" width="30" height="13" as="geometry" />
        </mxCell>
        <mxCell id="KgdIim3yzK7cX7A-Uen1-170" value="&lt;font style=&quot;font-size: 12px;&quot;&gt;via&lt;/font&gt;" style="text;html=1;align=center;verticalAlign=middle;whiteSpace=wrap;rounded=0;" vertex="1" parent="1">
          <mxGeometry x="-215" y="75" width="25" height="10" as="geometry" />
        </mxCell>
        <mxCell id="KgdIim3yzK7cX7A-Uen1-172" value="&lt;font style=&quot;font-size: 12px;&quot;&gt;civico&lt;/font&gt;" style="text;html=1;align=center;verticalAlign=middle;whiteSpace=wrap;rounded=0;" vertex="1" parent="1">
          <mxGeometry x="-225" y="85" width="35" height="10" as="geometry" />
        </mxCell>
        <mxCell id="KgdIim3yzK7cX7A-Uen1-174" value="&lt;font style=&quot;font-size: 12px;&quot;&gt;comune&lt;/font&gt;" style="text;html=1;align=center;verticalAlign=middle;whiteSpace=wrap;rounded=0;" vertex="1" parent="1">
          <mxGeometry x="-225" y="95" width="35" height="10" as="geometry" />
        </mxCell>
        <mxCell id="KgdIim3yzK7cX7A-Uen1-176" value="" style="endArrow=none;html=1;rounded=0;endFill=0;startArrow=oval;startFill=0;entryX=0;entryY=0;entryDx=0;entryDy=0;" edge="1" parent="1" target="KgdIim3yzK7cX7A-Uen1-2">
          <mxGeometry width="50" height="50" relative="1" as="geometry">
            <mxPoint x="600" y="50" as="sourcePoint" />
            <mxPoint x="595" y="69.5" as="targetPoint" />
          </mxGeometry>
        </mxCell>
        <mxCell id="KgdIim3yzK7cX7A-Uen1-177" value="&lt;font style=&quot;font-size: 12px;&quot;&gt;via&lt;/font&gt;" style="text;html=1;align=center;verticalAlign=middle;whiteSpace=wrap;rounded=0;" vertex="1" parent="1">
          <mxGeometry x="570" y="40" width="25" height="10" as="geometry" />
        </mxCell>
        <mxCell id="KgdIim3yzK7cX7A-Uen1-179" value="&lt;font style=&quot;font-size: 12px;&quot;&gt;civico&lt;/font&gt;" style="text;html=1;align=center;verticalAlign=middle;whiteSpace=wrap;rounded=0;" vertex="1" parent="1">
          <mxGeometry x="560" y="45" width="35" height="20" as="geometry" />
        </mxCell>
        <mxCell id="KgdIim3yzK7cX7A-Uen1-181" value="&lt;font style=&quot;font-size: 12px;&quot;&gt;comune&lt;/font&gt;" style="text;html=1;align=center;verticalAlign=middle;whiteSpace=wrap;rounded=0;" vertex="1" parent="1">
          <mxGeometry x="549.25" y="55" width="35" height="20" as="geometry" />
        </mxCell>
        <mxCell id="KgdIim3yzK7cX7A-Uen1-195" value="consegnato" style="text;html=1;align=center;verticalAlign=middle;whiteSpace=wrap;rounded=0;" vertex="1" parent="1">
          <mxGeometry x="278.5" y="329.5" width="70" height="15" as="geometry" />
        </mxCell>
        <mxCell id="KgdIim3yzK7cX7A-Uen1-196" value="" style="endArrow=none;html=1;rounded=0;endFill=0;startArrow=oval;startFill=0;entryX=0.808;entryY=1.01;entryDx=0;entryDy=0;entryPerimeter=0;" edge="1" parent="1" target="KgdIim3yzK7cX7A-Uen1-3">
          <mxGeometry width="50" height="50" relative="1" as="geometry">
            <mxPoint x="324.25" y="324.5" as="sourcePoint" />
            <mxPoint x="314.25" y="304.5" as="targetPoint" />
          </mxGeometry>
        </mxCell>
        <mxCell id="KgdIim3yzK7cX7A-Uen1-197" value="" style="endArrow=none;html=1;rounded=0;entryX=0;entryY=0;entryDx=0;entryDy=0;endFill=0;startArrow=oval;startFill=0;" edge="1" parent="1">
          <mxGeometry width="50" height="50" relative="1" as="geometry">
            <mxPoint x="459.01" y="466.5" as="sourcePoint" />
            <mxPoint x="459.01" y="486.5" as="targetPoint" />
          </mxGeometry>
        </mxCell>
        <mxCell id="KgdIim3yzK7cX7A-Uen1-198" value="voto" style="text;html=1;align=center;verticalAlign=middle;whiteSpace=wrap;rounded=0;" vertex="1" parent="1">
          <mxGeometry x="439.25" y="451.5" width="40" height="10" as="geometry" />
        </mxCell>
        <mxCell id="KgdIim3yzK7cX7A-Uen1-199" value="" style="endArrow=none;html=1;rounded=0;entryX=0;entryY=0;entryDx=0;entryDy=0;endFill=0;startArrow=oval;startFill=0;" edge="1" parent="1">
          <mxGeometry width="50" height="50" relative="1" as="geometry">
            <mxPoint x="484.25" y="466.5" as="sourcePoint" />
            <mxPoint x="484.25" y="486.5" as="targetPoint" />
          </mxGeometry>
        </mxCell>
        <mxCell id="KgdIim3yzK7cX7A-Uen1-200" value="commento" style="text;html=1;align=center;verticalAlign=middle;whiteSpace=wrap;rounded=0;" vertex="1" parent="1">
          <mxGeometry x="484.25" y="450" width="40" height="10" as="geometry" />
        </mxCell>
        <mxCell id="KgdIim3yzK7cX7A-Uen1-201" value="&lt;font style=&quot;font-size: 9px;&quot;&gt;0,1&lt;/font&gt;" style="text;html=1;align=center;verticalAlign=middle;whiteSpace=wrap;rounded=0;" vertex="1" parent="1">
          <mxGeometry x="489.25" y="471.5" width="15" height="10" as="geometry" />
        </mxCell>
        <mxCell id="KgdIim3yzK7cX7A-Uen1-207" value="" style="endArrow=none;html=1;rounded=0;entryX=0.594;entryY=0.008;entryDx=0;entryDy=0;endFill=0;startArrow=oval;startFill=0;entryPerimeter=0;" edge="1" parent="1">
          <mxGeometry width="50" height="50" relative="1" as="geometry">
            <mxPoint x="434.01" y="386" as="sourcePoint" />
            <mxPoint x="435.3399999999999" y="402.18999999999994" as="targetPoint" />
          </mxGeometry>
        </mxCell>
        <mxCell id="KgdIim3yzK7cX7A-Uen1-208" value="voto" style="text;html=1;align=center;verticalAlign=middle;whiteSpace=wrap;rounded=0;" vertex="1" parent="1">
          <mxGeometry x="414.25" y="371" width="40" height="10" as="geometry" />
        </mxCell>
        <mxCell id="KgdIim3yzK7cX7A-Uen1-209" value="" style="endArrow=none;html=1;rounded=0;endFill=0;startArrow=oval;startFill=0;entryX=0.816;entryY=0.038;entryDx=0;entryDy=0;entryPerimeter=0;" edge="1" parent="1">
          <mxGeometry width="50" height="50" relative="1" as="geometry">
            <mxPoint x="459.25" y="386" as="sourcePoint" />
            <mxPoint x="459.76" y="403.39" as="targetPoint" />
          </mxGeometry>
        </mxCell>
        <mxCell id="KgdIim3yzK7cX7A-Uen1-210" value="commento" style="text;html=1;align=center;verticalAlign=middle;whiteSpace=wrap;rounded=0;" vertex="1" parent="1">
          <mxGeometry x="459.25" y="369.5" width="40" height="10" as="geometry" />
        </mxCell>
        <mxCell id="KgdIim3yzK7cX7A-Uen1-211" value="&lt;font style=&quot;font-size: 9px;&quot;&gt;0,1&lt;/font&gt;" style="text;html=1;align=center;verticalAlign=middle;whiteSpace=wrap;rounded=0;" vertex="1" parent="1">
          <mxGeometry x="464.25" y="391" width="15" height="10" as="geometry" />
        </mxCell>
        <mxCell id="KgdIim3yzK7cX7A-Uen1-212" value="" style="endArrow=none;html=1;rounded=0;entryX=1;entryY=0;entryDx=0;entryDy=0;endFill=0;startArrow=oval;startFill=1;" edge="1" parent="1" target="KgdIim3yzK7cX7A-Uen1-116">
          <mxGeometry width="50" height="50" relative="1" as="geometry">
            <mxPoint x="555" y="486.5" as="sourcePoint" />
            <mxPoint x="800" y="400.75" as="targetPoint" />
          </mxGeometry>
        </mxCell>
        <mxCell id="KgdIim3yzK7cX7A-Uen1-213" value="istante_recensione" style="text;html=1;align=center;verticalAlign=middle;whiteSpace=wrap;rounded=0;" vertex="1" parent="1">
          <mxGeometry x="570" y="476.5" width="80" height="10" as="geometry" />
        </mxCell>
        <mxCell id="KgdIim3yzK7cX7A-Uen1-220" value="" style="endArrow=none;html=1;rounded=0;endFill=0;startArrow=oval;startFill=1;" edge="1" parent="1">
          <mxGeometry width="50" height="50" relative="1" as="geometry">
            <mxPoint x="545" y="399.5" as="sourcePoint" />
            <mxPoint x="525" y="401.5" as="targetPoint" />
          </mxGeometry>
        </mxCell>
        <mxCell id="KgdIim3yzK7cX7A-Uen1-221" value="istante_recensione" style="text;html=1;align=center;verticalAlign=middle;whiteSpace=wrap;rounded=0;" vertex="1" parent="1">
          <mxGeometry x="515" y="379.5" width="80" height="10" as="geometry" />
        </mxCell>
        <mxCell id="KgdIim3yzK7cX7A-Uen1-222" value="" style="endArrow=none;html=1;rounded=0;endFill=0;startArrow=oval;startFill=1;" edge="1" parent="1">
          <mxGeometry width="50" height="50" relative="1" as="geometry">
            <mxPoint x="400" y="410" as="sourcePoint" />
            <mxPoint x="535" y="389.5" as="targetPoint" />
            <Array as="points">
              <mxPoint x="400" y="450" />
              <mxPoint x="535" y="450" />
            </Array>
          </mxGeometry>
        </mxCell>
        <mxCell id="KgdIim3yzK7cX7A-Uen1-226" value="" style="endArrow=none;html=1;rounded=0;entryX=0;entryY=0;entryDx=0;entryDy=0;startArrow=oval;startFill=0;" edge="1" parent="1">
          <mxGeometry width="50" height="50" relative="1" as="geometry">
            <mxPoint x="-150" y="-113.5" as="sourcePoint" />
            <mxPoint x="-140" y="-103.5" as="targetPoint" />
          </mxGeometry>
        </mxCell>
        <mxCell id="KgdIim3yzK7cX7A-Uen1-227" value="occupato" style="text;html=1;align=center;verticalAlign=middle;whiteSpace=wrap;rounded=0;" vertex="1" parent="1">
          <mxGeometry x="-220" y="-123.5" width="70" height="10" as="geometry" />
        </mxCell>
        <mxCell id="KgdIim3yzK7cX7A-Uen1-228" value="" style="endArrow=none;html=1;rounded=0;entryX=0;entryY=0;entryDx=0;entryDy=0;startArrow=oval;startFill=0;" edge="1" parent="1">
          <mxGeometry width="50" height="50" relative="1" as="geometry">
            <mxPoint x="-117.5" y="-150" as="sourcePoint" />
            <mxPoint x="-117.5" y="-140" as="targetPoint" />
          </mxGeometry>
        </mxCell>
        <mxCell id="KgdIim3yzK7cX7A-Uen1-229" value="bici_elettrica" style="text;html=1;align=center;verticalAlign=middle;whiteSpace=wrap;rounded=0;" vertex="1" parent="1">
          <mxGeometry x="-135" y="-170" width="80" height="10" as="geometry" />
        </mxCell>
        <mxCell id="KgdIim3yzK7cX7A-Uen1-232" value="" style="endArrow=none;html=1;rounded=0;entryX=0;entryY=0;entryDx=0;entryDy=0;startArrow=oval;startFill=0;" edge="1" parent="1">
          <mxGeometry width="50" height="50" relative="1" as="geometry">
            <mxPoint x="-60" y="-150" as="sourcePoint" />
            <mxPoint x="-57.5" y="-140" as="targetPoint" />
          </mxGeometry>
        </mxCell>
        <mxCell id="KgdIim3yzK7cX7A-Uen1-233" value="&lt;font style=&quot;font-size: 9px;&quot;&gt;0,1&lt;/font&gt;" style="text;html=1;align=center;verticalAlign=middle;whiteSpace=wrap;rounded=0;" vertex="1" parent="1">
          <mxGeometry x="300" y="306.5" width="23.5" height="10" as="geometry" />
        </mxCell>
        <mxCell id="KgdIim3yzK7cX7A-Uen1-234" value="" style="endArrow=none;html=1;rounded=0;endFill=0;startArrow=oval;startFill=0;entryX=0.808;entryY=1.01;entryDx=0;entryDy=0;entryPerimeter=0;" edge="1" parent="1">
          <mxGeometry width="50" height="50" relative="1" as="geometry">
            <mxPoint x="295.25" y="310" as="sourcePoint" />
            <mxPoint x="292" y="299.5" as="targetPoint" />
          </mxGeometry>
        </mxCell>
        <mxCell id="KgdIim3yzK7cX7A-Uen1-235" value="&lt;font style=&quot;font-size: 9px;&quot;&gt;0,1&lt;/font&gt;" style="text;html=1;align=center;verticalAlign=middle;whiteSpace=wrap;rounded=0;" vertex="1" parent="1">
          <mxGeometry x="274.25" y="300" width="15" height="10" as="geometry" />
        </mxCell>
        <mxCell id="KgdIim3yzK7cX7A-Uen1-236" value="ritirato" style="text;html=1;align=center;verticalAlign=middle;whiteSpace=wrap;rounded=0;" vertex="1" parent="1">
          <mxGeometry x="261.38" y="312" width="40.75" height="15" as="geometry" />
        </mxCell>
        <mxCell id="KgdIim3yzK7cX7A-Uen1-237" value="" style="endArrow=none;html=1;rounded=0;endFill=0;startArrow=oval;startFill=0;entryX=0.808;entryY=1.01;entryDx=0;entryDy=0;entryPerimeter=0;exitX=0.576;exitY=-0.087;exitDx=0;exitDy=0;exitPerimeter=0;" edge="1" parent="1" source="KgdIim3yzK7cX7A-Uen1-239">
          <mxGeometry width="50" height="50" relative="1" as="geometry">
            <mxPoint x="254.25" y="319" as="sourcePoint" />
            <mxPoint x="251.25" y="299.5" as="targetPoint" />
          </mxGeometry>
        </mxCell>
        <mxCell id="KgdIim3yzK7cX7A-Uen1-238" value="&lt;font style=&quot;font-size: 9px;&quot;&gt;0,1&lt;/font&gt;" style="text;html=1;align=center;verticalAlign=middle;whiteSpace=wrap;rounded=0;" vertex="1" parent="1">
          <mxGeometry x="236" y="300" width="15" height="10" as="geometry" />
        </mxCell>
        <mxCell id="KgdIim3yzK7cX7A-Uen1-239" value="annullato" style="text;html=1;align=center;verticalAlign=middle;whiteSpace=wrap;rounded=0;" vertex="1" parent="1">
          <mxGeometry x="208.5" y="323.5" width="70" height="15" as="geometry" />
        </mxCell>
        <mxCell id="KgdIim3yzK7cX7A-Uen1-240" value="" style="endArrow=none;html=1;rounded=0;entryX=0;entryY=0;entryDx=0;entryDy=0;startArrow=oval;startFill=0;" edge="1" parent="1">
          <mxGeometry width="50" height="50" relative="1" as="geometry">
            <mxPoint x="-150" y="-98.5" as="sourcePoint" />
            <mxPoint x="-140" y="-88.5" as="targetPoint" />
          </mxGeometry>
        </mxCell>
        <mxCell id="KgdIim3yzK7cX7A-Uen1-241" value="disponibile" style="text;html=1;align=center;verticalAlign=middle;whiteSpace=wrap;rounded=0;" vertex="1" parent="1">
          <mxGeometry x="-230" y="-108.5" width="80" height="10" as="geometry" />
        </mxCell>
        <mxCell id="KgdIim3yzK7cX7A-Uen1-242" value="" style="endArrow=none;html=1;rounded=0;entryX=0;entryY=1;entryDx=0;entryDy=0;startArrow=oval;startFill=0;" edge="1" parent="1" target="KgdIim3yzK7cX7A-Uen1-5">
          <mxGeometry width="50" height="50" relative="1" as="geometry">
            <mxPoint x="-150" y="-81.5" as="sourcePoint" />
            <mxPoint x="-140" y="-71.5" as="targetPoint" />
          </mxGeometry>
        </mxCell>
        <mxCell id="KgdIim3yzK7cX7A-Uen1-243" value="fuori_servizio" style="text;html=1;align=center;verticalAlign=middle;whiteSpace=wrap;rounded=0;" vertex="1" parent="1">
          <mxGeometry x="-240" y="-91.5" width="90" height="10" as="geometry" />
        </mxCell>
        <mxCell id="KgdIim3yzK7cX7A-Uen1-244" value="&lt;font style=&quot;font-size: 9px;&quot;&gt;0,1&lt;/font&gt;" style="text;html=1;align=center;verticalAlign=middle;whiteSpace=wrap;rounded=0;" vertex="1" parent="1">
          <mxGeometry x="-160" y="-81.5" width="15" height="10" as="geometry" />
        </mxCell>
        <mxCell id="KgdIim3yzK7cX7A-Uen1-245" value="&lt;font style=&quot;font-size: 9px;&quot;&gt;0,1&lt;/font&gt;" style="text;html=1;align=center;verticalAlign=middle;whiteSpace=wrap;rounded=0;" vertex="1" parent="1">
          <mxGeometry x="-160" y="-98.5" width="15" height="10" as="geometry" />
        </mxCell>
        <mxCell id="KgdIim3yzK7cX7A-Uen1-246" value="&lt;font style=&quot;font-size: 9px;&quot;&gt;0,1&lt;/font&gt;" style="text;html=1;align=center;verticalAlign=middle;whiteSpace=wrap;rounded=0;" vertex="1" parent="1">
          <mxGeometry x="-160" y="-113.5" width="15" height="10" as="geometry" />
        </mxCell>
        <mxCell id="KgdIim3yzK7cX7A-Uen1-248" value="" style="endArrow=none;html=1;rounded=0;entryX=0;entryY=0;entryDx=0;entryDy=0;startArrow=oval;startFill=0;" edge="1" parent="1">
          <mxGeometry width="50" height="50" relative="1" as="geometry">
            <mxPoint x="-50" y="-170" as="sourcePoint" />
            <mxPoint x="-40" y="-140" as="targetPoint" />
          </mxGeometry>
        </mxCell>
        <mxCell id="KgdIim3yzK7cX7A-Uen1-249" value="bici" style="text;html=1;align=center;verticalAlign=middle;whiteSpace=wrap;rounded=0;" vertex="1" parent="1">
          <mxGeometry x="-87.5" y="-156.5" width="25" height="10" as="geometry" />
        </mxCell>
        <mxCell id="KgdIim3yzK7cX7A-Uen1-251" value="" style="endArrow=none;html=1;rounded=0;entryX=0;entryY=0;entryDx=0;entryDy=0;startArrow=oval;startFill=0;" edge="1" parent="1">
          <mxGeometry width="50" height="50" relative="1" as="geometry">
            <mxPoint x="-140" y="-160" as="sourcePoint" />
            <mxPoint x="-130" y="-140" as="targetPoint" />
          </mxGeometry>
        </mxCell>
        <mxCell id="KgdIim3yzK7cX7A-Uen1-252" value="monopattino" style="text;html=1;align=center;verticalAlign=middle;whiteSpace=wrap;rounded=0;" vertex="1" parent="1">
          <mxGeometry x="-210" y="-180" width="70" height="20" as="geometry" />
        </mxCell>
        <mxCell id="KgdIim3yzK7cX7A-Uen1-253" value="&lt;font style=&quot;font-size: 8px;&quot;&gt;0,1&lt;/font&gt;" style="text;html=1;align=center;verticalAlign=middle;whiteSpace=wrap;rounded=0;fontSize=8;" vertex="1" parent="1">
          <mxGeometry x="-135" y="-160" width="15" height="10" as="geometry" />
        </mxCell>
        <mxCell id="KgdIim3yzK7cX7A-Uen1-254" value="&lt;font style=&quot;font-size: 8px;&quot;&gt;0,1&lt;/font&gt;" style="text;html=1;align=center;verticalAlign=middle;whiteSpace=wrap;rounded=0;fontSize=8;" vertex="1" parent="1">
          <mxGeometry x="-115" y="-150" width="15" height="10" as="geometry" />
        </mxCell>
        <mxCell id="KgdIim3yzK7cX7A-Uen1-255" value="&lt;font style=&quot;font-size: 6px;&quot;&gt;0,1&lt;/font&gt;" style="text;html=1;align=center;verticalAlign=middle;whiteSpace=wrap;rounded=0;fontSize=6;" vertex="1" parent="1">
          <mxGeometry x="-72.5" y="-150" width="15" height="10" as="geometry" />
        </mxCell>
        <mxCell id="KgdIim3yzK7cX7A-Uen1-270" value="" style="endArrow=none;html=1;rounded=0;entryX=1;entryY=0.5;entryDx=0;entryDy=0;exitX=0.5;exitY=1;exitDx=0;exitDy=0;" edge="1" parent="1" source="KgdIim3yzK7cX7A-Uen1-300" target="KgdIim3yzK7cX7A-Uen1-115">
          <mxGeometry width="50" height="50" relative="1" as="geometry">
            <mxPoint x="274" y="120" as="sourcePoint" />
            <mxPoint x="-30" y="120" as="targetPoint" />
            <Array as="points">
              <mxPoint x="640" y="421" />
            </Array>
          </mxGeometry>
        </mxCell>
        <mxCell id="KgdIim3yzK7cX7A-Uen1-271" value="" style="endArrow=none;html=1;rounded=0;entryX=1;entryY=0.5;entryDx=0;entryDy=0;exitX=0.5;exitY=1;exitDx=0;exitDy=0;" edge="1" parent="1" source="KgdIim3yzK7cX7A-Uen1-302" target="KgdIim3yzK7cX7A-Uen1-116">
          <mxGeometry width="50" height="50" relative="1" as="geometry">
            <mxPoint x="760" y="154" as="sourcePoint" />
            <mxPoint x="640" y="431" as="targetPoint" />
            <Array as="points">
              <mxPoint x="700" y="507" />
            </Array>
          </mxGeometry>
        </mxCell>
        <mxCell id="KgdIim3yzK7cX7A-Uen1-272" value="" style="endArrow=none;html=1;rounded=0;entryX=0.75;entryY=1;entryDx=0;entryDy=0;exitX=0;exitY=0.5;exitDx=0;exitDy=0;" edge="1" parent="1" source="KgdIim3yzK7cX7A-Uen1-284" target="KgdIim3yzK7cX7A-Uen1-1">
          <mxGeometry width="50" height="50" relative="1" as="geometry">
            <mxPoint x="274" y="120" as="sourcePoint" />
            <mxPoint x="-30" y="120" as="targetPoint" />
            <Array as="points">
              <mxPoint x="-20" y="420" />
              <mxPoint x="-20" y="190" />
              <mxPoint x="-70" y="190" />
            </Array>
          </mxGeometry>
        </mxCell>
        <mxCell id="KgdIim3yzK7cX7A-Uen1-273" value="" style="endArrow=none;html=1;rounded=0;exitX=0;exitY=0.5;exitDx=0;exitDy=0;entryX=0.164;entryY=0.994;entryDx=0;entryDy=0;entryPerimeter=0;" edge="1" parent="1" source="KgdIim3yzK7cX7A-Uen1-285" target="KgdIim3yzK7cX7A-Uen1-5">
          <mxGeometry width="50" height="50" relative="1" as="geometry">
            <mxPoint x="530" y="431" as="sourcePoint" />
            <mxPoint x="-110" y="-60" as="targetPoint" />
            <Array as="points">
              <mxPoint x="-520" y="510" />
              <mxPoint x="-520" y="-40" />
              <mxPoint x="-120" y="-40" />
            </Array>
          </mxGeometry>
        </mxCell>
        <mxCell id="KgdIim3yzK7cX7A-Uen1-275" value="" style="endArrow=none;html=1;rounded=0;entryX=1;entryY=1;entryDx=0;entryDy=0;exitX=0;exitY=0.5;exitDx=0;exitDy=0;" edge="1" parent="1" source="KgdIim3yzK7cX7A-Uen1-281" target="KgdIim3yzK7cX7A-Uen1-1">
          <mxGeometry width="50" height="50" relative="1" as="geometry">
            <mxPoint x="236" y="285" as="sourcePoint" />
            <mxPoint x="-30" y="320" as="targetPoint" />
            <Array as="points">
              <mxPoint x="-40" y="184" />
            </Array>
          </mxGeometry>
        </mxCell>
        <mxCell id="KgdIim3yzK7cX7A-Uen1-276" value="" style="endArrow=none;html=1;rounded=0;entryX=1;entryY=0.5;entryDx=0;entryDy=0;exitX=0;exitY=1;exitDx=0;exitDy=0;" edge="1" parent="1" source="KgdIim3yzK7cX7A-Uen1-2" target="KgdIim3yzK7cX7A-Uen1-277">
          <mxGeometry width="50" height="50" relative="1" as="geometry">
            <mxPoint x="236" y="255" as="sourcePoint" />
            <mxPoint x="-30" y="150" as="targetPoint" />
            <Array as="points">
              <mxPoint x="610" y="270" />
            </Array>
          </mxGeometry>
        </mxCell>
        <mxCell id="KgdIim3yzK7cX7A-Uen1-277" value="effettua" style="rhombus;whiteSpace=wrap;html=1;" vertex="1" parent="1">
          <mxGeometry x="439.25" y="249.5" width="80" height="40" as="geometry" />
        </mxCell>
        <mxCell id="KgdIim3yzK7cX7A-Uen1-278" value="" style="endArrow=none;html=1;rounded=0;entryX=1;entryY=0.5;entryDx=0;entryDy=0;exitX=0;exitY=0.5;exitDx=0;exitDy=0;" edge="1" parent="1" target="KgdIim3yzK7cX7A-Uen1-3">
          <mxGeometry width="50" height="50" relative="1" as="geometry">
            <mxPoint x="437.75" y="269.5000000000002" as="sourcePoint" />
            <mxPoint x="577.5" y="235" as="targetPoint" />
          </mxGeometry>
        </mxCell>
        <mxCell id="KgdIim3yzK7cX7A-Uen1-279" value="contiene" style="rhombus;whiteSpace=wrap;html=1;" vertex="1" parent="1">
          <mxGeometry x="50" y="249.5" width="80" height="40" as="geometry" />
        </mxCell>
        <mxCell id="KgdIim3yzK7cX7A-Uen1-280" value="" style="endArrow=none;html=1;rounded=0;entryX=1;entryY=0.5;entryDx=0;entryDy=0;exitX=0;exitY=0.5;exitDx=0;exitDy=0;" edge="1" parent="1" source="KgdIim3yzK7cX7A-Uen1-279" target="KgdIim3yzK7cX7A-Uen1-4">
          <mxGeometry width="50" height="50" relative="1" as="geometry">
            <mxPoint x="236" y="285" as="sourcePoint" />
            <mxPoint x="150" y="320" as="targetPoint" />
            <Array as="points">
              <mxPoint x="50" y="400" />
            </Array>
          </mxGeometry>
        </mxCell>
        <mxCell id="KgdIim3yzK7cX7A-Uen1-281" value="riceve" style="rhombus;whiteSpace=wrap;html=1;fontSize=11;" vertex="1" parent="1">
          <mxGeometry x="50" y="163.9" width="80" height="40" as="geometry" />
        </mxCell>
        <mxCell id="KgdIim3yzK7cX7A-Uen1-282" value="" style="endArrow=none;html=1;rounded=0;entryX=1;entryY=0.5;entryDx=0;entryDy=0;exitX=0;exitY=0.25;exitDx=0;exitDy=0;" edge="1" parent="1" source="KgdIim3yzK7cX7A-Uen1-3" target="KgdIim3yzK7cX7A-Uen1-281">
          <mxGeometry width="50" height="50" relative="1" as="geometry">
            <mxPoint x="250" y="220" as="sourcePoint" />
            <mxPoint x="-30" y="150" as="targetPoint" />
            <Array as="points">
              <mxPoint x="130" y="255" />
            </Array>
          </mxGeometry>
        </mxCell>
        <mxCell id="KgdIim3yzK7cX7A-Uen1-283" value="" style="endArrow=none;html=1;rounded=0;entryX=0.75;entryY=1;entryDx=0;entryDy=0;exitX=0.5;exitY=0;exitDx=0;exitDy=0;" edge="1" parent="1" source="KgdIim3yzK7cX7A-Uen1-296" target="KgdIim3yzK7cX7A-Uen1-5">
          <mxGeometry width="50" height="50" relative="1" as="geometry">
            <mxPoint x="274" y="55" as="sourcePoint" />
            <mxPoint x="-10" y="-98" as="targetPoint" />
            <Array as="points">
              <mxPoint x="90" y="-50" />
              <mxPoint x="-50" y="-50" />
            </Array>
          </mxGeometry>
        </mxCell>
        <mxCell id="KgdIim3yzK7cX7A-Uen1-284" value="recensisce" style="rhombus;whiteSpace=wrap;html=1;" vertex="1" parent="1">
          <mxGeometry x="50" y="401" width="80" height="40" as="geometry" />
        </mxCell>
        <mxCell id="KgdIim3yzK7cX7A-Uen1-285" value="valuta" style="rhombus;whiteSpace=wrap;html=1;" vertex="1" parent="1">
          <mxGeometry x="50" y="486.5" width="80" height="40" as="geometry" />
        </mxCell>
        <mxCell id="KgdIim3yzK7cX7A-Uen1-286" value="" style="endArrow=none;html=1;rounded=0;entryX=1;entryY=0.5;entryDx=0;entryDy=0;exitX=0;exitY=0.5;exitDx=0;exitDy=0;" edge="1" parent="1" source="KgdIim3yzK7cX7A-Uen1-115" target="KgdIim3yzK7cX7A-Uen1-284">
          <mxGeometry width="50" height="50" relative="1" as="geometry">
            <mxPoint x="236" y="285" as="sourcePoint" />
            <mxPoint x="150" y="320" as="targetPoint" />
          </mxGeometry>
        </mxCell>
        <mxCell id="KgdIim3yzK7cX7A-Uen1-287" value="" style="endArrow=none;html=1;rounded=0;entryX=1;entryY=0.5;entryDx=0;entryDy=0;exitX=0;exitY=0.5;exitDx=0;exitDy=0;" edge="1" parent="1" source="KgdIim3yzK7cX7A-Uen1-116" target="KgdIim3yzK7cX7A-Uen1-285">
          <mxGeometry width="50" height="50" relative="1" as="geometry">
            <mxPoint x="530" y="431" as="sourcePoint" />
            <mxPoint x="200" y="431" as="targetPoint" />
          </mxGeometry>
        </mxCell>
        <mxCell id="KgdIim3yzK7cX7A-Uen1-289" value="CHAT" style="rounded=0;whiteSpace=wrap;html=1;" vertex="1" parent="1">
          <mxGeometry x="219.75" width="120" height="60" as="geometry" />
        </mxCell>
        <mxCell id="KgdIim3yzK7cX7A-Uen1-297" value="" style="endArrow=none;html=1;rounded=0;entryX=1;entryY=0.5;entryDx=0;entryDy=0;exitX=0;exitY=0;exitDx=0;exitDy=0;" edge="1" parent="1" source="KgdIim3yzK7cX7A-Uen1-3" target="KgdIim3yzK7cX7A-Uen1-296">
          <mxGeometry width="50" height="50" relative="1" as="geometry">
            <mxPoint x="190" y="260" as="sourcePoint" />
            <mxPoint x="-20" y="-78" as="targetPoint" />
            <Array as="points">
              <mxPoint x="160" y="240" />
              <mxPoint x="160" />
            </Array>
          </mxGeometry>
        </mxCell>
        <mxCell id="KgdIim3yzK7cX7A-Uen1-296" value="consegna" style="rhombus;whiteSpace=wrap;html=1;" vertex="1" parent="1">
          <mxGeometry x="50" y="-20.5" width="80" height="40" as="geometry" />
        </mxCell>
        <mxCell id="KgdIim3yzK7cX7A-Uen1-301" value="" style="endArrow=none;html=1;rounded=0;entryX=0.5;entryY=0;entryDx=0;entryDy=0;exitX=0.25;exitY=1;exitDx=0;exitDy=0;" edge="1" parent="1" source="KgdIim3yzK7cX7A-Uen1-2" target="KgdIim3yzK7cX7A-Uen1-300">
          <mxGeometry width="50" height="50" relative="1" as="geometry">
            <mxPoint x="670" y="120" as="sourcePoint" />
            <mxPoint x="525" y="421" as="targetPoint" />
            <Array as="points" />
          </mxGeometry>
        </mxCell>
        <mxCell id="KgdIim3yzK7cX7A-Uen1-300" value="scrive" style="rhombus;whiteSpace=wrap;html=1;" vertex="1" parent="1">
          <mxGeometry x="600" y="279" width="80" height="40" as="geometry" />
        </mxCell>
        <mxCell id="KgdIim3yzK7cX7A-Uen1-302" value="compila" style="rhombus;whiteSpace=wrap;html=1;" vertex="1" parent="1">
          <mxGeometry x="660" y="349.5" width="80" height="40" as="geometry" />
        </mxCell>
        <mxCell id="KgdIim3yzK7cX7A-Uen1-304" value="" style="endArrow=none;html=1;rounded=0;entryX=0.75;entryY=1;entryDx=0;entryDy=0;exitX=0.5;exitY=0;exitDx=0;exitDy=0;" edge="1" parent="1" source="KgdIim3yzK7cX7A-Uen1-302" target="KgdIim3yzK7cX7A-Uen1-2">
          <mxGeometry width="50" height="50" relative="1" as="geometry">
            <mxPoint x="650" y="130" as="sourcePoint" />
            <mxPoint x="650" y="289" as="targetPoint" />
            <Array as="points" />
          </mxGeometry>
        </mxCell>
        <mxCell id="KgdIim3yzK7cX7A-Uen1-305" value="0,n" style="text;html=1;align=center;verticalAlign=middle;whiteSpace=wrap;rounded=0;" vertex="1" parent="1">
          <mxGeometry x="519.25" y="256.5" width="30" height="13" as="geometry" />
        </mxCell>
        <mxCell id="KgdIim3yzK7cX7A-Uen1-306" value="1,1" style="text;html=1;align=center;verticalAlign=middle;whiteSpace=wrap;rounded=0;" vertex="1" parent="1">
          <mxGeometry x="409.25" y="256.5" width="30" height="13" as="geometry" />
        </mxCell>
        <mxCell id="KgdIim3yzK7cX7A-Uen1-307" value="0,n" style="text;html=1;align=center;verticalAlign=middle;whiteSpace=wrap;rounded=0;" vertex="1" parent="1">
          <mxGeometry x="640" y="263" width="30" height="13" as="geometry" />
        </mxCell>
        <mxCell id="KgdIim3yzK7cX7A-Uen1-308" value="1,1" style="text;html=1;align=center;verticalAlign=middle;whiteSpace=wrap;rounded=0;" vertex="1" parent="1">
          <mxGeometry x="610" y="319" width="30" height="11" as="geometry" />
        </mxCell>
        <mxCell id="KgdIim3yzK7cX7A-Uen1-309" value="0,n" style="text;html=1;align=center;verticalAlign=middle;whiteSpace=wrap;rounded=0;" vertex="1" parent="1">
          <mxGeometry x="700" y="336.5" width="30" height="13" as="geometry" />
        </mxCell>
        <mxCell id="KgdIim3yzK7cX7A-Uen1-310" value="1,1" style="text;html=1;align=center;verticalAlign=middle;whiteSpace=wrap;rounded=0;" vertex="1" parent="1">
          <mxGeometry x="670" y="391.5" width="30" height="13.5" as="geometry" />
        </mxCell>
        <mxCell id="KgdIim3yzK7cX7A-Uen1-311" value="1,1" style="text;html=1;align=center;verticalAlign=middle;whiteSpace=wrap;rounded=0;" vertex="1" parent="1">
          <mxGeometry x="130" y="405" width="30" height="13" as="geometry" />
        </mxCell>
        <mxCell id="KgdIim3yzK7cX7A-Uen1-312" value="1,1" style="text;html=1;align=center;verticalAlign=middle;whiteSpace=wrap;rounded=0;" vertex="1" parent="1">
          <mxGeometry x="130" y="491.5" width="30" height="13" as="geometry" />
        </mxCell>
        <mxCell id="KgdIim3yzK7cX7A-Uen1-313" value="0,n" style="text;html=1;align=center;verticalAlign=middle;whiteSpace=wrap;rounded=0;" vertex="1" parent="1">
          <mxGeometry x="10" y="405" width="30" height="13" as="geometry" />
        </mxCell>
        <mxCell id="KgdIim3yzK7cX7A-Uen1-314" value="0,n" style="text;html=1;align=center;verticalAlign=middle;whiteSpace=wrap;rounded=0;" vertex="1" parent="1">
          <mxGeometry x="20" y="491.5" width="30" height="13" as="geometry" />
        </mxCell>
        <mxCell id="KgdIim3yzK7cX7A-Uen1-315" value="0,n" style="text;html=1;align=center;verticalAlign=middle;whiteSpace=wrap;rounded=0;" vertex="1" parent="1">
          <mxGeometry x="20" y="256.5" width="30" height="13" as="geometry" />
        </mxCell>
        <mxCell id="KgdIim3yzK7cX7A-Uen1-316" value="1,n" style="text;html=1;align=center;verticalAlign=middle;whiteSpace=wrap;rounded=0;" vertex="1" parent="1">
          <mxGeometry x="140" y="269.5" width="30" height="13" as="geometry" />
        </mxCell>
        <mxCell id="KgdIim3yzK7cX7A-Uen1-319" value="0,n" style="text;html=1;align=center;verticalAlign=middle;whiteSpace=wrap;rounded=0;" vertex="1" parent="1">
          <mxGeometry x="60" y="-36.5" width="30" height="13" as="geometry" />
        </mxCell>
        <mxCell id="KgdIim3yzK7cX7A-Uen1-320" value="1,1" style="text;html=1;align=center;verticalAlign=middle;whiteSpace=wrap;rounded=0;" vertex="1" parent="1">
          <mxGeometry x="130" width="30" height="13" as="geometry" />
        </mxCell>
        <mxCell id="KgdIim3yzK7cX7A-Uen1-321" value="0,n" style="text;html=1;align=center;verticalAlign=middle;whiteSpace=wrap;rounded=0;" vertex="1" parent="1">
          <mxGeometry x="20" y="163.9" width="30" height="13" as="geometry" />
        </mxCell>
        <mxCell id="KgdIim3yzK7cX7A-Uen1-322" value="1,1" style="text;html=1;align=center;verticalAlign=middle;whiteSpace=wrap;rounded=0;" vertex="1" parent="1">
          <mxGeometry x="130" y="163.9" width="30" height="13" as="geometry" />
        </mxCell>
        <mxCell id="KgdIim3yzK7cX7A-Uen1-334" value="messaggia" style="rhombus;whiteSpace=wrap;html=1;" vertex="1" parent="1">
          <mxGeometry x="239.75" y="113" width="80" height="40" as="geometry" />
        </mxCell>
        <mxCell id="KgdIim3yzK7cX7A-Uen1-335" value="" style="endArrow=none;html=1;rounded=0;entryX=0.5;entryY=1;entryDx=0;entryDy=0;exitX=0.5;exitY=0;exitDx=0;exitDy=0;" edge="1" parent="1" source="KgdIim3yzK7cX7A-Uen1-334" target="KgdIim3yzK7cX7A-Uen1-289">
          <mxGeometry width="50" height="50" relative="1" as="geometry">
            <mxPoint x="290" y="130" as="sourcePoint" />
            <mxPoint x="340" y="80" as="targetPoint" />
          </mxGeometry>
        </mxCell>
        <mxCell id="KgdIim3yzK7cX7A-Uen1-336" value="" style="endArrow=none;html=1;rounded=0;entryX=0.5;entryY=1;entryDx=0;entryDy=0;exitX=0.5;exitY=0;exitDx=0;exitDy=0;" edge="1" parent="1" source="KgdIim3yzK7cX7A-Uen1-3" target="KgdIim3yzK7cX7A-Uen1-334">
          <mxGeometry width="50" height="50" relative="1" as="geometry">
            <mxPoint x="280" y="238" as="sourcePoint" />
            <mxPoint x="293" y="70" as="targetPoint" />
          </mxGeometry>
        </mxCell>
        <mxCell id="KgdIim3yzK7cX7A-Uen1-340" value="tipo" style="text;html=1;align=center;verticalAlign=middle;whiteSpace=wrap;rounded=0;" vertex="1" parent="1">
          <mxGeometry x="285.62" y="-39" width="33.63" height="15" as="geometry" />
        </mxCell>
        <mxCell id="KgdIim3yzK7cX7A-Uen1-341" value="" style="endArrow=none;html=1;rounded=0;entryX=0.158;entryY=-0.006;entryDx=0;entryDy=0;endFill=0;startArrow=oval;startFill=0;entryPerimeter=0;" edge="1" parent="1">
          <mxGeometry width="50" height="50" relative="1" as="geometry">
            <mxPoint x="308.18" y="-20.5" as="sourcePoint" />
            <mxPoint x="307.18" y="-0.5" as="targetPoint" />
          </mxGeometry>
        </mxCell>
        <mxCell id="KgdIim3yzK7cX7A-Uen1-348" value="0,2" style="text;html=1;align=center;verticalAlign=middle;whiteSpace=wrap;rounded=0;" vertex="1" parent="1">
          <mxGeometry x="289.25" y="153" width="30" height="13" as="geometry" />
        </mxCell>
        <mxCell id="KgdIim3yzK7cX7A-Uen1-349" value="1,1" style="text;html=1;align=center;verticalAlign=middle;whiteSpace=wrap;rounded=0;" vertex="1" parent="1">
          <mxGeometry x="244.25" y="100" width="30" height="13" as="geometry" />
        </mxCell>
        <mxCell id="KgdIim3yzK7cX7A-Uen1-351" value="" style="endArrow=none;html=1;rounded=0;endFill=0;startArrow=oval;startFill=0;entryX=0;entryY=0;entryDx=0;entryDy=0;" edge="1" parent="1">
          <mxGeometry width="50" height="50" relative="1" as="geometry">
            <mxPoint x="600" y="60" as="sourcePoint" />
            <mxPoint x="610" y="70" as="targetPoint" />
          </mxGeometry>
        </mxCell>
        <mxCell id="KgdIim3yzK7cX7A-Uen1-352" value="" style="endArrow=none;html=1;rounded=0;endFill=0;startArrow=oval;startFill=0;entryX=0;entryY=0;entryDx=0;entryDy=0;" edge="1" parent="1">
          <mxGeometry width="50" height="50" relative="1" as="geometry">
            <mxPoint x="600" y="70" as="sourcePoint" />
            <mxPoint x="610" y="80" as="targetPoint" />
          </mxGeometry>
        </mxCell>
        <mxCell id="KgdIim3yzK7cX7A-Uen1-354" value="" style="endArrow=none;html=1;rounded=0;endFill=0;startArrow=oval;startFill=0;entryX=0;entryY=0.25;entryDx=0;entryDy=0;" edge="1" parent="1">
          <mxGeometry width="50" height="50" relative="1" as="geometry">
            <mxPoint x="-180" y="80" as="sourcePoint" />
            <mxPoint x="-160" y="85" as="targetPoint" />
          </mxGeometry>
        </mxCell>
        <mxCell id="KgdIim3yzK7cX7A-Uen1-355" value="" style="endArrow=none;html=1;rounded=0;endFill=0;startArrow=oval;startFill=0;entryX=0;entryY=0.25;entryDx=0;entryDy=0;" edge="1" parent="1">
          <mxGeometry width="50" height="50" relative="1" as="geometry">
            <mxPoint x="-180" y="87.5" as="sourcePoint" />
            <mxPoint x="-160" y="92.5" as="targetPoint" />
          </mxGeometry>
        </mxCell>
        <mxCell id="KgdIim3yzK7cX7A-Uen1-356" value="" style="endArrow=none;html=1;rounded=0;endFill=0;startArrow=oval;startFill=0;entryX=0;entryY=0.25;entryDx=0;entryDy=0;" edge="1" parent="1">
          <mxGeometry width="50" height="50" relative="1" as="geometry">
            <mxPoint x="-180" y="97.5" as="sourcePoint" />
            <mxPoint x="-160" y="102.5" as="targetPoint" />
          </mxGeometry>
        </mxCell>
        <mxCell id="KgdIim3yzK7cX7A-Uen1-357" value="" style="endArrow=none;html=1;rounded=0;endFill=0;startArrow=oval;startFill=1;" edge="1" parent="1">
          <mxGeometry width="50" height="50" relative="1" as="geometry">
            <mxPoint x="404.25" y="496.75" as="sourcePoint" />
            <mxPoint x="539.25" y="476.25" as="targetPoint" />
            <Array as="points">
              <mxPoint x="404.25" y="536.75" />
              <mxPoint x="539.25" y="536.75" />
            </Array>
          </mxGeometry>
        </mxCell>
        <mxCell id="KgdIim3yzK7cX7A-Uen1-358" value="" style="endArrow=none;html=1;rounded=0;entryX=0;entryY=0.5;entryDx=0;entryDy=0;exitX=1;exitY=0.5;exitDx=0;exitDy=0;" edge="1" parent="1" source="KgdIim3yzK7cX7A-Uen1-279" target="KgdIim3yzK7cX7A-Uen1-3">
          <mxGeometry width="50" height="50" relative="1" as="geometry">
            <mxPoint x="60" y="280" as="sourcePoint" />
            <mxPoint x="-30" y="409" as="targetPoint" />
          </mxGeometry>
        </mxCell>
        <mxCell id="KgdIim3yzK7cX7A-Uen1-359" value="LISTA" style="rounded=0;whiteSpace=wrap;html=1;" vertex="1" parent="1">
          <mxGeometry x="-400" y="200" width="120" height="60" as="geometry" />
        </mxCell>
        <mxCell id="KgdIim3yzK7cX7A-Uen1-361" value="crea" style="rhombus;whiteSpace=wrap;html=1;" vertex="1" parent="1">
          <mxGeometry x="-240" y="180" width="80" height="40" as="geometry" />
        </mxCell>
        <mxCell id="KgdIim3yzK7cX7A-Uen1-363" value="" style="endArrow=none;html=1;rounded=0;exitX=0;exitY=1;exitDx=0;exitDy=0;entryX=1;entryY=0.5;entryDx=0;entryDy=0;" edge="1" parent="1" source="KgdIim3yzK7cX7A-Uen1-1" target="KgdIim3yzK7cX7A-Uen1-361">
          <mxGeometry width="50" height="50" relative="1" as="geometry">
            <mxPoint x="-90" y="260" as="sourcePoint" />
            <mxPoint x="-90" y="130" as="targetPoint" />
          </mxGeometry>
        </mxCell>
        <mxCell id="KgdIim3yzK7cX7A-Uen1-364" value="" style="endArrow=none;html=1;rounded=0;exitX=1;exitY=0;exitDx=0;exitDy=0;entryX=0;entryY=0.5;entryDx=0;entryDy=0;" edge="1" parent="1" source="KgdIim3yzK7cX7A-Uen1-359" target="KgdIim3yzK7cX7A-Uen1-361">
          <mxGeometry width="50" height="50" relative="1" as="geometry">
            <mxPoint x="-150" y="150" as="sourcePoint" />
            <mxPoint x="-150" y="210" as="targetPoint" />
          </mxGeometry>
        </mxCell>
        <mxCell id="KgdIim3yzK7cX7A-Uen1-367" value="" style="endArrow=none;html=1;rounded=0;entryX=0;entryY=0.5;entryDx=0;entryDy=0;" edge="1" target="KgdIim3yzK7cX7A-Uen1-368" parent="1">
          <mxGeometry width="50" height="50" relative="1" as="geometry">
            <mxPoint x="-280" y="260" as="sourcePoint" />
            <mxPoint x="-150" y="268.9" as="targetPoint" />
          </mxGeometry>
        </mxCell>
        <mxCell id="KgdIim3yzK7cX7A-Uen1-368" value="salva" style="rhombus;whiteSpace=wrap;html=1;" vertex="1" parent="1">
          <mxGeometry x="-240" y="238.9" width="80" height="40" as="geometry" />
        </mxCell>
        <mxCell id="KgdIim3yzK7cX7A-Uen1-369" value="" style="endArrow=none;html=1;rounded=0;exitX=0;exitY=0;exitDx=0;exitDy=0;entryX=1;entryY=0.5;entryDx=0;entryDy=0;" edge="1" parent="1" source="KgdIim3yzK7cX7A-Uen1-4" target="KgdIim3yzK7cX7A-Uen1-368">
          <mxGeometry width="50" height="50" relative="1" as="geometry">
            <mxPoint x="-270" y="190" as="sourcePoint" />
            <mxPoint x="-230" y="190" as="targetPoint" />
          </mxGeometry>
        </mxCell>
        <mxCell id="KgdIim3yzK7cX7A-Uen1-370" value="1,n" style="text;html=1;align=center;verticalAlign=middle;whiteSpace=wrap;rounded=0;" vertex="1" parent="1">
          <mxGeometry x="-160" y="183.9" width="30" height="13" as="geometry" />
        </mxCell>
        <mxCell id="KgdIim3yzK7cX7A-Uen1-371" value="1,1" style="text;html=1;align=center;verticalAlign=middle;whiteSpace=wrap;rounded=0;" vertex="1" parent="1">
          <mxGeometry x="-270" y="187" width="30" height="13" as="geometry" />
        </mxCell>
        <mxCell id="KgdIim3yzK7cX7A-Uen1-372" value="1,n" style="text;html=1;align=center;verticalAlign=middle;whiteSpace=wrap;rounded=0;" vertex="1" parent="1">
          <mxGeometry x="-260" y="240" width="30" height="20" as="geometry" />
        </mxCell>
        <mxCell id="KgdIim3yzK7cX7A-Uen1-373" value="1,n" style="text;html=1;align=center;verticalAlign=middle;whiteSpace=wrap;rounded=0;" vertex="1" parent="1">
          <mxGeometry x="-190" y="276.5" width="30" height="13" as="geometry" />
        </mxCell>
        <mxCell id="KgdIim3yzK7cX7A-Uen1-374" value="" style="endArrow=none;html=1;rounded=0;endFill=0;startArrow=oval;startFill=1;" edge="1" parent="1">
          <mxGeometry width="50" height="50" relative="1" as="geometry">
            <mxPoint x="-270" y="210" as="sourcePoint" />
            <mxPoint x="-324.5" y="187" as="targetPoint" />
            <Array as="points">
              <mxPoint x="-270" y="187" />
            </Array>
          </mxGeometry>
        </mxCell>
        <mxCell id="KgdIim3yzK7cX7A-Uen1-375" value="" style="endArrow=none;html=1;rounded=0;entryX=0;entryY=0;entryDx=0;entryDy=0;startArrow=oval;startFill=0;" edge="1" parent="1">
          <mxGeometry width="50" height="50" relative="1" as="geometry">
            <mxPoint x="-290" y="180" as="sourcePoint" />
            <mxPoint x="-290" y="200.4" as="targetPoint" />
          </mxGeometry>
        </mxCell>
        <mxCell id="KgdIim3yzK7cX7A-Uen1-376" value="nome" style="text;html=1;align=center;verticalAlign=middle;whiteSpace=wrap;rounded=0;" vertex="1" parent="1">
          <mxGeometry x="-360" y="170" width="60" height="10" as="geometry" />
        </mxCell>
        <mxCell id="KgdIim3yzK7cX7A-Uen1-377" value="INGREDIENTE" style="rounded=0;whiteSpace=wrap;html=1;" vertex="1" parent="1">
          <mxGeometry x="-473" y="321" width="120" height="60" as="geometry" />
        </mxCell>
        <mxCell id="KgdIim3yzK7cX7A-Uen1-378" value="ALLERGENE" style="rounded=0;whiteSpace=wrap;html=1;" vertex="1" parent="1">
          <mxGeometry x="-473" y="428.5" width="120" height="60" as="geometry" />
        </mxCell>
        <mxCell id="KgdIim3yzK7cX7A-Uen1-379" value="include" style="rhombus;whiteSpace=wrap;html=1;" vertex="1" parent="1">
          <mxGeometry x="-320" y="408.5" width="80" height="40" as="geometry" />
        </mxCell>
        <mxCell id="KgdIim3yzK7cX7A-Uen1-380" value="composto" style="rhombus;whiteSpace=wrap;html=1;" vertex="1" parent="1">
          <mxGeometry x="-320" y="361" width="80" height="40" as="geometry" />
        </mxCell>
        <mxCell id="KgdIim3yzK7cX7A-Uen1-381" value="" style="endArrow=none;html=1;rounded=0;entryX=0;entryY=0.5;entryDx=0;entryDy=0;exitX=1;exitY=1;exitDx=0;exitDy=0;" edge="1" parent="1" source="KgdIim3yzK7cX7A-Uen1-377" target="KgdIim3yzK7cX7A-Uen1-380">
          <mxGeometry width="50" height="50" relative="1" as="geometry">
            <mxPoint x="-270" y="270" as="sourcePoint" />
            <mxPoint x="-230" y="269" as="targetPoint" />
          </mxGeometry>
        </mxCell>
        <mxCell id="KgdIim3yzK7cX7A-Uen1-382" value="" style="endArrow=none;html=1;rounded=0;entryX=0;entryY=0.5;entryDx=0;entryDy=0;exitX=1;exitY=0;exitDx=0;exitDy=0;" edge="1" parent="1" source="KgdIim3yzK7cX7A-Uen1-378" target="KgdIim3yzK7cX7A-Uen1-379">
          <mxGeometry width="50" height="50" relative="1" as="geometry">
            <mxPoint x="-340" y="420" as="sourcePoint" />
            <mxPoint x="-230" y="269" as="targetPoint" />
          </mxGeometry>
        </mxCell>
        <mxCell id="KgdIim3yzK7cX7A-Uen1-383" value="" style="endArrow=none;html=1;rounded=0;entryX=1;entryY=0.5;entryDx=0;entryDy=0;exitX=0.002;exitY=0.202;exitDx=0;exitDy=0;exitPerimeter=0;" edge="1" parent="1" source="KgdIim3yzK7cX7A-Uen1-4" target="KgdIim3yzK7cX7A-Uen1-380">
          <mxGeometry width="50" height="50" relative="1" as="geometry">
            <mxPoint x="-330" y="391" as="sourcePoint" />
            <mxPoint x="-310" y="391" as="targetPoint" />
          </mxGeometry>
        </mxCell>
        <mxCell id="KgdIim3yzK7cX7A-Uen1-384" value="" style="endArrow=none;html=1;rounded=0;entryX=1;entryY=0.5;entryDx=0;entryDy=0;exitX=0;exitY=0.75;exitDx=0;exitDy=0;" edge="1" parent="1" source="KgdIim3yzK7cX7A-Uen1-4" target="KgdIim3yzK7cX7A-Uen1-379">
          <mxGeometry width="50" height="50" relative="1" as="geometry">
            <mxPoint x="-150" y="394" as="sourcePoint" />
            <mxPoint x="-230" y="391" as="targetPoint" />
            <Array as="points">
              <mxPoint x="-240" y="414" />
            </Array>
          </mxGeometry>
        </mxCell>
        <mxCell id="KgdIim3yzK7cX7A-Uen1-385" value="1,n" style="text;html=1;align=center;verticalAlign=middle;whiteSpace=wrap;rounded=0;" vertex="1" parent="1">
          <mxGeometry x="-245" y="359.5" width="30" height="20" as="geometry" />
        </mxCell>
        <mxCell id="KgdIim3yzK7cX7A-Uen1-386" value="0,n" style="text;html=1;align=center;verticalAlign=middle;whiteSpace=wrap;rounded=0;" vertex="1" parent="1">
          <mxGeometry x="-345" y="359.5" width="30" height="20" as="geometry" />
        </mxCell>
        <mxCell id="KgdIim3yzK7cX7A-Uen1-387" value="0,n" style="text;html=1;align=center;verticalAlign=middle;whiteSpace=wrap;rounded=0;" vertex="1" parent="1">
          <mxGeometry x="-240" y="411" width="30" height="20" as="geometry" />
        </mxCell>
        <mxCell id="KgdIim3yzK7cX7A-Uen1-388" value="0,n" style="text;html=1;align=center;verticalAlign=middle;whiteSpace=wrap;rounded=0;" vertex="1" parent="1">
          <mxGeometry x="-350" y="408.5" width="30" height="20" as="geometry" />
        </mxCell>
        <mxCell id="KgdIim3yzK7cX7A-Uen1-389" value="nome" style="text;html=1;align=center;verticalAlign=middle;whiteSpace=wrap;rounded=0;" vertex="1" parent="1">
          <mxGeometry x="-370" y="292.5" width="30" height="10" as="geometry" />
        </mxCell>
        <mxCell id="KgdIim3yzK7cX7A-Uen1-390" value="" style="endArrow=none;html=1;rounded=0;entryX=0.083;entryY=-0.008;entryDx=0;entryDy=0;startArrow=oval;startFill=1;entryPerimeter=0;" edge="1" parent="1">
          <mxGeometry width="50" height="50" relative="1" as="geometry">
            <mxPoint x="-360" y="313" as="sourcePoint" />
            <mxPoint x="-360" y="321" as="targetPoint" />
          </mxGeometry>
        </mxCell>
        <mxCell id="KgdIim3yzK7cX7A-Uen1-391" value="nome" style="text;html=1;align=center;verticalAlign=middle;whiteSpace=wrap;rounded=0;" vertex="1" parent="1">
          <mxGeometry x="-390" y="400" width="30" height="10" as="geometry" />
        </mxCell>
        <mxCell id="KgdIim3yzK7cX7A-Uen1-392" value="" style="endArrow=none;html=1;rounded=0;entryX=0.083;entryY=-0.008;entryDx=0;entryDy=0;startArrow=oval;startFill=1;entryPerimeter=0;" edge="1" parent="1">
          <mxGeometry width="50" height="50" relative="1" as="geometry">
            <mxPoint x="-380" y="420.5" as="sourcePoint" />
            <mxPoint x="-380" y="428.5" as="targetPoint" />
          </mxGeometry>
        </mxCell>
        <mxCell id="KgdIim3yzK7cX7A-Uen1-393" value="SCONTO" style="rounded=0;whiteSpace=wrap;html=1;" vertex="1" parent="1">
          <mxGeometry x="395.75" y="-30" width="120" height="60" as="geometry" />
        </mxCell>
        <mxCell id="KgdIim3yzK7cX7A-Uen1-394" value="colleziona" style="rhombus;whiteSpace=wrap;html=1;" vertex="1" parent="1">
          <mxGeometry x="415.75" y="70" width="80" height="40" as="geometry" />
        </mxCell>
        <mxCell id="KgdIim3yzK7cX7A-Uen1-395" value="" style="endArrow=none;html=1;rounded=0;entryX=0.5;entryY=1;entryDx=0;entryDy=0;exitX=0.5;exitY=0;exitDx=0;exitDy=0;" edge="1" parent="1" source="KgdIim3yzK7cX7A-Uen1-394" target="KgdIim3yzK7cX7A-Uen1-393">
          <mxGeometry width="50" height="50" relative="1" as="geometry">
            <mxPoint x="290" y="250" as="sourcePoint" />
            <mxPoint x="290" y="163" as="targetPoint" />
          </mxGeometry>
        </mxCell>
        <mxCell id="KgdIim3yzK7cX7A-Uen1-396" value="" style="endArrow=none;html=1;rounded=0;entryX=1;entryY=0.5;entryDx=0;entryDy=0;exitX=0;exitY=0.5;exitDx=0;exitDy=0;" edge="1" parent="1" source="KgdIim3yzK7cX7A-Uen1-2" target="KgdIim3yzK7cX7A-Uen1-394">
          <mxGeometry width="50" height="50" relative="1" as="geometry">
            <mxPoint x="466" y="85" as="sourcePoint" />
            <mxPoint x="466" y="70" as="targetPoint" />
          </mxGeometry>
        </mxCell>
        <mxCell id="KgdIim3yzK7cX7A-Uen1-398" value="" style="endArrow=none;html=1;rounded=0;entryX=1;entryY=0.5;entryDx=0;entryDy=0;endFill=0;startArrow=oval;startFill=0;" edge="1" parent="1">
          <mxGeometry width="50" height="50" relative="1" as="geometry">
            <mxPoint x="360" y="-185" as="sourcePoint" />
            <mxPoint x="339.25" y="-170" as="targetPoint" />
          </mxGeometry>
        </mxCell>
        <mxCell id="KgdIim3yzK7cX7A-Uen1-399" value="testo" style="text;html=1;align=center;verticalAlign=middle;whiteSpace=wrap;rounded=0;" vertex="1" parent="1">
          <mxGeometry x="359.25" y="-200" width="40" height="10" as="geometry" />
        </mxCell>
        <mxCell id="KgdIim3yzK7cX7A-Uen1-400" value="0,n" style="text;html=1;align=center;verticalAlign=middle;whiteSpace=wrap;rounded=0;" vertex="1" parent="1">
          <mxGeometry x="494.25" y="92" width="30" height="13" as="geometry" />
        </mxCell>
        <mxCell id="KgdIim3yzK7cX7A-Uen1-401" value="0,n" style="text;html=1;align=center;verticalAlign=middle;whiteSpace=wrap;rounded=0;" vertex="1" parent="1">
          <mxGeometry x="456.75" y="55" width="30" height="13" as="geometry" />
        </mxCell>
        <mxCell id="KgdIim3yzK7cX7A-Uen1-402" value="PAGAMENTO" style="rounded=0;whiteSpace=wrap;html=1;" vertex="1" parent="1">
          <mxGeometry x="640" y="-163.5" width="120" height="60" as="geometry" />
        </mxCell>
        <mxCell id="KgdIim3yzK7cX7A-Uen1-403" value="possiede" style="rhombus;whiteSpace=wrap;html=1;" vertex="1" parent="1">
          <mxGeometry x="660" y="-71.5" width="80" height="40" as="geometry" />
        </mxCell>
        <mxCell id="KgdIim3yzK7cX7A-Uen1-404" value="" style="endArrow=none;html=1;rounded=0;entryX=0.5;entryY=1;entryDx=0;entryDy=0;exitX=0.75;exitY=0;exitDx=0;exitDy=0;" edge="1" parent="1" source="KgdIim3yzK7cX7A-Uen1-2" target="KgdIim3yzK7cX7A-Uen1-403">
          <mxGeometry width="50" height="50" relative="1" as="geometry">
            <mxPoint x="620" y="100" as="sourcePoint" />
            <mxPoint x="506" y="100" as="targetPoint" />
          </mxGeometry>
        </mxCell>
        <mxCell id="KgdIim3yzK7cX7A-Uen1-405" value="" style="endArrow=none;html=1;rounded=0;entryX=0.5;entryY=0;entryDx=0;entryDy=0;exitX=0.5;exitY=1;exitDx=0;exitDy=0;" edge="1" parent="1" source="KgdIim3yzK7cX7A-Uen1-402" target="KgdIim3yzK7cX7A-Uen1-403">
          <mxGeometry width="50" height="50" relative="1" as="geometry">
            <mxPoint x="710" y="70" as="sourcePoint" />
            <mxPoint x="710" y="-21" as="targetPoint" />
          </mxGeometry>
        </mxCell>
        <mxCell id="KgdIim3yzK7cX7A-Uen1-406" value="" style="endArrow=none;html=1;rounded=0;entryX=0;entryY=0;entryDx=0;entryDy=0;endFill=0;startArrow=oval;startFill=1;" edge="1" parent="1">
          <mxGeometry width="50" height="50" relative="1" as="geometry">
            <mxPoint x="630" y="-170" as="sourcePoint" />
            <mxPoint x="640" y="-153.5" as="targetPoint" />
          </mxGeometry>
        </mxCell>
        <mxCell id="KgdIim3yzK7cX7A-Uen1-407" value="tipo" style="text;html=1;align=center;verticalAlign=middle;whiteSpace=wrap;rounded=0;" vertex="1" parent="1">
          <mxGeometry x="600" y="-185" width="24.25" height="10" as="geometry" />
        </mxCell>
        <mxCell id="KgdIim3yzK7cX7A-Uen1-409" value="1,n" style="text;html=1;align=center;verticalAlign=middle;whiteSpace=wrap;rounded=0;" vertex="1" parent="1">
          <mxGeometry x="700" y="-30" width="30" height="13" as="geometry" />
        </mxCell>
        <mxCell id="KgdIim3yzK7cX7A-Uen1-410" value="1,1" style="text;html=1;align=center;verticalAlign=middle;whiteSpace=wrap;rounded=0;" vertex="1" parent="1">
          <mxGeometry x="670" y="-88.5" width="30" height="13" as="geometry" />
        </mxCell>
        <mxCell id="KgdIim3yzK7cX7A-Uen1-411" value="CATEGORIA" style="rounded=0;whiteSpace=wrap;html=1;" vertex="1" parent="1">
          <mxGeometry x="-480" y="-20" width="120" height="60" as="geometry" />
        </mxCell>
        <mxCell id="KgdIim3yzK7cX7A-Uen1-412" value="appartiene" style="rhombus;whiteSpace=wrap;html=1;" vertex="1" parent="1">
          <mxGeometry x="-295" y="-10" width="80" height="40" as="geometry" />
        </mxCell>
        <mxCell id="KgdIim3yzK7cX7A-Uen1-413" value="" style="endArrow=none;html=1;rounded=0;entryX=0;entryY=0.5;entryDx=0;entryDy=0;exitX=1;exitY=0.5;exitDx=0;exitDy=0;" edge="1" parent="1" source="KgdIim3yzK7cX7A-Uen1-411" target="KgdIim3yzK7cX7A-Uen1-412">
          <mxGeometry width="50" height="50" relative="1" as="geometry">
            <mxPoint x="-335" y="70" as="sourcePoint" />
            <mxPoint x="-295" y="69" as="targetPoint" />
          </mxGeometry>
        </mxCell>
        <mxCell id="KgdIim3yzK7cX7A-Uen1-414" value="" style="endArrow=none;html=1;rounded=0;entryX=1;entryY=0.5;entryDx=0;entryDy=0;exitX=0;exitY=0;exitDx=0;exitDy=0;" edge="1" parent="1" source="KgdIim3yzK7cX7A-Uen1-1" target="KgdIim3yzK7cX7A-Uen1-412">
          <mxGeometry width="50" height="50" relative="1" as="geometry">
            <mxPoint x="-350" y="20" as="sourcePoint" />
            <mxPoint x="-285" y="20" as="targetPoint" />
          </mxGeometry>
        </mxCell>
        <mxCell id="KgdIim3yzK7cX7A-Uen1-415" value="0,n" style="text;html=1;align=center;verticalAlign=middle;whiteSpace=wrap;rounded=0;" vertex="1" parent="1">
          <mxGeometry x="-320" y="-3" width="30" height="13" as="geometry" />
        </mxCell>
        <mxCell id="KgdIim3yzK7cX7A-Uen1-416" value="1,n" style="text;html=1;align=center;verticalAlign=middle;whiteSpace=wrap;rounded=0;" vertex="1" parent="1">
          <mxGeometry x="-215" y="3.5" width="30" height="13" as="geometry" />
        </mxCell>
        <mxCell id="KgdIim3yzK7cX7A-Uen1-417" value="nome" style="text;html=1;align=center;verticalAlign=middle;whiteSpace=wrap;rounded=0;" vertex="1" parent="1">
          <mxGeometry x="-420" y="56.5" width="80" height="10" as="geometry" />
        </mxCell>
        <mxCell id="KgdIim3yzK7cX7A-Uen1-418" value="" style="endArrow=none;html=1;rounded=0;entryX=0.75;entryY=1;entryDx=0;entryDy=0;startArrow=oval;startFill=1;" edge="1" parent="1" target="KgdIim3yzK7cX7A-Uen1-411">
          <mxGeometry width="50" height="50" relative="1" as="geometry">
            <mxPoint x="-380" y="50" as="sourcePoint" />
            <mxPoint x="-280" y="210.4" as="targetPoint" />
          </mxGeometry>
        </mxCell>
        <mxCell id="KgdIim3yzK7cX7A-Uen1-419" value="" style="endArrow=none;html=1;rounded=0;entryX=0.918;entryY=0.018;entryDx=0;entryDy=0;endFill=0;startArrow=oval;startFill=1;entryPerimeter=0;" edge="1" parent="1">
          <mxGeometry width="50" height="50" relative="1" as="geometry">
            <mxPoint x="314.5" y="220" as="sourcePoint" />
            <mxPoint x="310" y="241" as="targetPoint" />
          </mxGeometry>
        </mxCell>
        <mxCell id="KgdIim3yzK7cX7A-Uen1-420" value="id_ordine" style="text;html=1;align=center;verticalAlign=middle;whiteSpace=wrap;rounded=0;" vertex="1" parent="1">
          <mxGeometry x="289.25" y="203.9" width="51" height="15" as="geometry" />
        </mxCell>
        <mxCell id="KgdIim3yzK7cX7A-Uen1-421" value="MESSAGGIO" style="rounded=0;whiteSpace=wrap;html=1;" vertex="1" parent="1">
          <mxGeometry x="219.25" y="-185" width="120" height="60" as="geometry" />
        </mxCell>
        <mxCell id="KgdIim3yzK7cX7A-Uen1-422" value="Messaggi&lt;div style=&quot;font-size: 9px;&quot;&gt;chat&lt;/div&gt;" style="rhombus;whiteSpace=wrap;html=1;fontSize=9;" vertex="1" parent="1">
          <mxGeometry x="239.75" y="-85" width="80" height="40" as="geometry" />
        </mxCell>
        <mxCell id="KgdIim3yzK7cX7A-Uen1-423" value="" style="endArrow=none;html=1;rounded=0;entryX=0.5;entryY=0;entryDx=0;entryDy=0;exitX=0.5;exitY=1;exitDx=0;exitDy=0;" edge="1" parent="1" source="KgdIim3yzK7cX7A-Uen1-421" target="KgdIim3yzK7cX7A-Uen1-422">
          <mxGeometry width="50" height="50" relative="1" as="geometry">
            <mxPoint x="310" y="-30" as="sourcePoint" />
            <mxPoint x="360" y="-80" as="targetPoint" />
          </mxGeometry>
        </mxCell>
        <mxCell id="KgdIim3yzK7cX7A-Uen1-424" value="" style="endArrow=none;html=1;rounded=0;entryX=0.5;entryY=1;entryDx=0;entryDy=0;exitX=0.5;exitY=0;exitDx=0;exitDy=0;" edge="1" parent="1" source="KgdIim3yzK7cX7A-Uen1-289" target="KgdIim3yzK7cX7A-Uen1-422">
          <mxGeometry width="50" height="50" relative="1" as="geometry">
            <mxPoint x="290" y="-115" as="sourcePoint" />
            <mxPoint x="292" y="-90" as="targetPoint" />
          </mxGeometry>
        </mxCell>
        <mxCell id="KgdIim3yzK7cX7A-Uen1-425" value="0,n" style="text;html=1;align=center;verticalAlign=middle;whiteSpace=wrap;rounded=0;" vertex="1" parent="1">
          <mxGeometry x="248.5" y="-43" width="30" height="13" as="geometry" />
        </mxCell>
        <mxCell id="KgdIim3yzK7cX7A-Uen1-426" value="1,1" style="text;html=1;align=center;verticalAlign=middle;whiteSpace=wrap;rounded=0;" vertex="1" parent="1">
          <mxGeometry x="278.5" y="-103.5" width="30" height="13" as="geometry" />
        </mxCell>
        <mxCell id="KgdIim3yzK7cX7A-Uen1-427" value="" style="endArrow=none;html=1;rounded=0;endFill=0;startArrow=oval;startFill=1;entryX=0.992;entryY=0.68;entryDx=0;entryDy=0;entryPerimeter=0;" edge="1" parent="1" target="KgdIim3yzK7cX7A-Uen1-421">
          <mxGeometry width="50" height="50" relative="1" as="geometry">
            <mxPoint x="361.25" y="-160" as="sourcePoint" />
            <mxPoint x="370" y="-140" as="targetPoint" />
          </mxGeometry>
        </mxCell>
        <mxCell id="KgdIim3yzK7cX7A-Uen1-428" value="istante_messaggio" style="text;html=1;align=center;verticalAlign=middle;whiteSpace=wrap;rounded=0;" vertex="1" parent="1">
          <mxGeometry x="369.25" y="-170" width="100.75" height="10" as="geometry" />
        </mxCell>
        <mxCell id="KgdIim3yzK7cX7A-Uen1-429" value="" style="endArrow=none;html=1;rounded=0;endFill=0;startArrow=oval;startFill=1;" edge="1" parent="1">
          <mxGeometry width="50" height="50" relative="1" as="geometry">
            <mxPoint x="348" y="-160" as="sourcePoint" />
            <mxPoint x="270" y="-110" as="targetPoint" />
            <Array as="points">
              <mxPoint x="348" y="-110" />
            </Array>
          </mxGeometry>
        </mxCell>
        <mxCell id="KgdIim3yzK7cX7A-Uen1-430" value="" style="endArrow=none;html=1;rounded=0;entryX=1;entryY=0.25;entryDx=0;entryDy=0;endFill=0;startArrow=oval;startFill=1;" edge="1" parent="1" target="KgdIim3yzK7cX7A-Uen1-393">
          <mxGeometry width="50" height="50" relative="1" as="geometry">
            <mxPoint x="530" y="-30" as="sourcePoint" />
            <mxPoint x="564.25" y="-20" as="targetPoint" />
          </mxGeometry>
        </mxCell>
        <mxCell id="KgdIim3yzK7cX7A-Uen1-431" value="codice" style="text;html=1;align=center;verticalAlign=middle;whiteSpace=wrap;rounded=0;" vertex="1" parent="1">
          <mxGeometry x="534.25" y="-46.5" width="35.75" height="10" as="geometry" />
        </mxCell>
        <mxCell id="KgdIim3yzK7cX7A-Uen1-432" value="" style="endArrow=none;html=1;rounded=0;startArrow=oval;startFill=1;" edge="1" parent="1">
          <mxGeometry width="50" height="50" relative="1" as="geometry">
            <mxPoint x="-140" y="360" as="sourcePoint" />
            <mxPoint x="-170" y="360" as="targetPoint" />
          </mxGeometry>
        </mxCell>
        <mxCell id="KgdIim3yzK7cX7A-Uen1-434" value="id_chat" style="text;html=1;align=center;verticalAlign=middle;whiteSpace=wrap;rounded=0;" vertex="1" parent="1">
          <mxGeometry x="325.62" y="-39" width="33.63" height="15" as="geometry" />
        </mxCell>
        <mxCell id="KgdIim3yzK7cX7A-Uen1-435" value="" style="endArrow=none;html=1;rounded=0;entryX=0.158;entryY=-0.006;entryDx=0;entryDy=0;endFill=0;startArrow=oval;startFill=1;entryPerimeter=0;" edge="1" parent="1">
          <mxGeometry width="50" height="50" relative="1" as="geometry">
            <mxPoint x="330.86" y="-19" as="sourcePoint" />
            <mxPoint x="329.86" y="1" as="targetPoint" />
          </mxGeometry>
        </mxCell>
      </root>
    </mxGraphModel>
  </diagram>
</mxfile>
